<svg width="248" height="254" viewBox="0 0 248 254" fill="none" xmlns="http://www.w3.org/2000/svg">
<path d="M64.7316 61.3241H182.837C184.087 61.3241 185.109 60.3021 185.109 59.0529C185.109 47.6965 182.61 37.2771 177.755 28.3624C172.872 19.4193 165.689 12.2364 156.746 7.35322C147.831 2.49839 137.412 0 126.056 0H121.513C110.157 0 99.7375 2.49839 90.8228 7.35322C81.8797 12.2364 74.6968 19.4193 69.8136 28.3624C64.9588 37.2771 62.4604 47.6965 62.4604 59.0529C62.4604 60.3021 63.4824 61.3241 64.7316 61.3241Z" fill="#EFEFEF"/>
<path d="M245.296 127.192H203.278V98.801C225.082 98.801 242.741 81.1419 242.741 59.3378C242.741 58.0886 241.719 57.0665 240.47 57.0665H223.436C222.186 57.0665 221.164 58.0886 221.164 59.3378C221.164 69.2178 213.158 77.224 203.278 77.224H44.2896C34.4096 77.224 26.4034 69.2178 26.4034 59.3378C26.4034 58.0886 25.3814 57.0665 24.1322 57.0665H7.0977C5.8485 57.0665 4.82644 58.0886 4.82644 59.3378C4.82644 81.1419 22.4855 98.801 44.2896 98.801V127.192H2.27126C1.02207 127.192 0 128.214 0 129.463V145.362C0 146.611 1.02207 147.633 2.27126 147.633H44.2896V174.888C44.2896 176.734 44.3464 178.579 44.4884 180.368C25.0123 188.686 11.3563 208.02 11.3563 230.534C11.3563 231.783 12.3784 232.806 13.6276 232.806H29.5264C30.7756 232.806 31.7977 231.783 31.7977 230.534C31.7977 217.986 38.5831 206.998 48.7186 201.093C50.4221 205.976 52.5798 210.632 55.1633 215.005C62.0623 226.787 71.9139 236.638 83.6961 243.537C91.901 248.335 101.014 251.714 110.753 253.332C112.002 253.332 113.024 252.31 113.024 251.061V119.242C113.024 117.993 114.046 116.971 115.295 116.971H132.329C133.579 116.971 134.601 117.993 134.601 119.242V251.032C134.601 252.282 135.623 253.304 136.872 253.304C146.61 251.685 155.724 248.307 163.928 243.509C175.711 236.61 185.562 226.758 192.461 214.976C195.045 210.576 197.202 205.919 198.906 201.065C208.985 206.998 215.77 217.986 215.77 230.534C215.77 231.783 216.792 232.806 218.041 232.806H233.94C235.189 232.806 236.211 231.783 236.211 230.534C236.211 208.02 222.555 188.686 203.079 180.368C203.193 178.551 203.278 176.734 203.278 174.888V147.633H245.296C246.546 147.633 247.568 146.611 247.568 145.362V129.463C247.568 128.214 246.546 127.192 245.296 127.192Z" fill="#EFEFEF"/>
</svg>
