<svg width="181" height="198" viewBox="0 0 181 198" fill="none" xmlns="http://www.w3.org/2000/svg">
<path d="M175.938 61.3828L120.131 62.8743C119.551 58.897 117.977 55.3755 115.408 52.3097C112.84 49.161 109.484 46.7166 105.341 44.9766C101.281 43.1536 96.5578 42.2422 91.1719 42.2422C84.1288 42.2422 78.1215 43.6508 73.1499 46.468C68.2611 49.2853 65.8582 53.0968 65.9411 57.9027C65.8582 61.6314 67.3497 64.8629 70.4155 67.5973C73.5642 70.3317 79.1572 72.5275 87.1946 74.1847L123.984 81.1449C143.042 84.7907 157.211 90.8395 166.491 99.2912C175.855 107.743 180.578 118.929 180.661 132.849C180.578 145.941 176.683 157.335 168.977 167.029C161.354 176.724 150.914 184.264 137.656 189.65C124.399 194.953 109.235 197.604 92.1662 197.604C64.9053 197.604 43.4032 192.011 27.6598 180.825C11.9993 169.556 3.05043 154.476 0.81321 135.584L60.8452 134.092C62.1709 141.053 65.6096 146.356 71.1612 150.001C76.7128 153.647 83.7973 155.47 92.4148 155.47C100.204 155.47 106.542 154.02 111.431 151.12C116.32 148.22 118.806 144.367 118.888 139.561C118.806 135.252 116.9 131.814 113.171 129.245C109.442 126.594 103.601 124.522 95.6463 123.031L62.3366 116.692C43.196 113.212 28.9441 106.79 19.581 97.4268C10.2178 87.9808 5.57765 75.9661 5.66051 61.3828C5.57765 48.6224 8.97491 37.7263 15.8523 28.6946C22.7296 19.58 32.5071 12.6198 45.1847 7.81391C57.8622 3.00805 72.8184 0.605116 90.0533 0.605116C115.906 0.605116 136.289 6.03243 151.204 16.8871C166.119 27.6588 174.363 42.4908 175.938 61.3828Z" fill="#EFEFEF"/>
</svg>
